<svg width="224" height="224" viewBox="0 0 224 224" fill="none" xmlns="http://www.w3.org/2000/svg">
<path opacity="0.3" fill-rule="evenodd" clip-rule="evenodd" d="M36.9331 78.5405L107.133 35.6404C110.121 33.8145 113.879 33.8145 116.867 35.6404L187.067 78.5405C192.616 81.9314 196 87.9656 196 94.4684V177.333C196 187.643 187.643 196 177.334 196L46.6667 196C36.3573 196 28 187.643 28 177.333C28 177.333 28 177.333 28 177.333L28.0002 94.4684C28.0002 87.9656 31.3843 81.9314 36.9331 78.5405Z" fill="#B3D9AC"/>
<path fill-rule="evenodd" clip-rule="evenodd" d="M128.8 112C122.791 112 115.764 118.812 112 123.2C108.236 118.812 101.209 112 95.2001 112C84.5639 112 78.4001 120.296 78.4001 130.855C78.4001 142.552 89.6001 154.933 112 168C134.4 154.933 145.6 142.8 145.6 131.6C145.6 121.041 139.436 112 128.8 112Z" fill="#89BB9C"/>
</svg>
