<svg width="730" height="545" viewBox="0 0 730 545" fill="none" xmlns="http://www.w3.org/2000/svg">
<path opacity="0.7" d="M440 314.5C440 355.645 406.645 389 365.5 389C324.355 389 291 355.645 291 314.5C291 273.355 324.355 240 365.5 240C406.645 240 440 273.355 440 314.5Z" fill="url(#paint0_linear)"/>
<path opacity="0.1" d="M453 313.5C453 361.825 414.049 401 366 401C317.951 401 279 361.825 279 313.5C279 265.175 317.951 226 366 226C414.049 226 453 265.175 453 313.5Z" fill="url(#paint1_linear)"/>
<text opacity="0.88" fill="#EEBB50" xml:space="preserve" style="white-space: pre" font-family="TT Commons" font-size="14" font-weight="bold" letter-spacing="0em"><tspan x="315.274" y="154.8">You buying regis</tspan></text>
<text opacity="0.88" fill="#F2C94C" xml:space="preserve" style="white-space: pre" font-family="TT Commons" font-size="12" font-weight="bold" letter-spacing="0em"><tspan x="322.611" y="81.4">GOOD FOR YOU</tspan></text>
<text opacity="0.88" fill="#F2C94C" xml:space="preserve" style="white-space: pre" font-family="TT Commons" font-size="12" font-weight="bold" letter-spacing="0em"><tspan x="625.568" y="529.4">GOOD FOR </tspan><tspan x="632.406" y="541.4">CENTRE</tspan></text>
<text opacity="0.88" fill="#F2C94C" xml:space="preserve" style="white-space: pre" font-family="TT Commons" font-size="12" font-weight="bold" letter-spacing="0em"><tspan x="30.6074" y="526.4">GOOD FOR FARM</tspan></text>
<text opacity="0.88" fill="white" xml:space="preserve" style="white-space: pre" font-family="TT Commons" font-size="20" font-weight="bold" letter-spacing="0em"><tspan x="39.3457" y="491">Organic &#10;</tspan><tspan x="55.8496" y="509">farm</tspan></text>
<text opacity="0.88" fill="white" xml:space="preserve" style="white-space: pre" font-family="TT Commons" font-size="20" font-weight="bold" letter-spacing="0em"><tspan x="605.846" y="494">Ecotourism </tspan><tspan x="626.256" y="512">centre</tspan></text>
<circle cx="364.5" cy="314.5" r="35.5" fill="#17334B"/>
<text fill="white" xml:space="preserve" style="white-space: pre" font-family="Abril Fatface" font-size="24" letter-spacing="0.05em"><tspan x="337.962" y="323.204">Regi</tspan></text>
<circle opacity="0.1" cx="74.5" cy="435.5" r="52.5" fill="url(#paint2_linear)"/>
<circle cx="74.5" cy="434.5" r="35.5" fill="white"/>
<path d="M68.1437 433.176C69.8692 434.869 72.8816 434.869 74.6071 433.176C74.7479 433.037 74.8795 432.891 74.9983 432.737C75.1189 432.891 75.2487 433.037 75.3913 433.176C76.2541 434.022 77.402 434.489 78.623 434.489C79.844 434.489 80.992 434.022 81.8547 433.176C83.3627 431.699 85.5361 425.226 85.9565 423.944C86.0863 423.546 85.9181 423.113 85.5507 422.899C85.1852 422.688 84.7154 422.751 84.4211 423.055C84.4101 423.066 83.3317 424.161 82.032 424.62C81.162 424.929 80.1658 425.169 79.2043 425.4C77.466 425.819 76.0932 426.149 75.3913 426.839C75.2505 426.979 75.1189 427.124 75.0001 427.279C74.8795 427.124 74.7497 426.979 74.6071 426.839C73.9034 426.149 72.5306 425.819 70.7941 425.4C69.8327 425.169 68.8365 424.929 67.9664 424.62C66.6594 424.158 65.5883 423.064 65.5773 423.053C65.2812 422.751 64.8133 422.688 64.4477 422.901C64.0803 423.114 63.9139 423.548 64.0437 423.946C64.4623 425.226 66.6357 431.697 68.1437 433.176ZM74.9654 425.525C77.4842 425.525 79.5351 423.514 79.5351 421.044C79.5351 418.893 76.3546 414.27 75.7185 413.364C75.3748 412.879 74.5559 412.879 74.2141 413.364C73.5762 414.27 70.3957 418.893 70.3957 421.044C70.3957 423.514 72.4466 425.525 74.9654 425.525ZM85.5507 441.489C85.187 441.277 84.7172 441.34 84.4211 441.641C84.4101 441.652 83.339 442.745 82.032 443.208C81.162 443.516 80.1676 443.756 79.2061 443.988C77.4678 444.405 76.095 444.737 75.3913 445.427C75.2487 445.565 75.1189 445.712 75.0001 445.866C74.8795 445.714 74.7497 445.567 74.6071 445.427C73.9034 444.737 72.5306 444.405 70.7941 443.988C69.8308 443.756 68.8365 443.516 67.9664 443.208C66.6594 442.745 65.5883 441.652 65.5773 441.641C65.2812 441.338 64.8133 441.274 64.4477 441.489C64.0803 441.702 63.9139 442.136 64.0437 442.534C64.4641 443.817 66.6375 450.289 68.1455 451.766C69.871 453.458 72.8834 453.458 74.609 451.766C74.7515 451.628 74.8813 451.481 75.0001 451.327C75.1208 451.479 75.2505 451.626 75.3931 451.766C76.2559 452.612 77.4038 453.078 78.6248 453.078C79.8459 453.078 80.9938 452.612 81.8566 451.766C83.3646 450.289 85.5379 443.816 85.9584 442.534C86.0845 442.136 85.9163 441.702 85.5507 441.489ZM85.5507 432.194C85.1833 431.981 84.7136 432.045 84.4211 432.348C84.4101 432.359 83.3317 433.454 82.0339 433.915C81.1638 434.221 80.1694 434.462 79.2079 434.695C77.4696 435.112 76.0969 435.444 75.3931 436.134C75.2505 436.272 75.1208 436.419 75.0019 436.573C74.8813 436.421 74.7515 436.274 74.609 436.134C73.9052 435.444 72.5325 435.112 70.7941 434.695C69.8327 434.463 68.8365 434.223 67.9682 433.915C66.6613 433.452 65.5883 432.359 65.5773 432.348C65.283 432.045 64.8151 431.981 64.4477 432.196C64.0821 432.409 63.9139 432.841 64.0437 433.239C64.4641 434.521 66.6375 440.992 68.1455 442.471C69.871 444.163 72.8816 444.163 74.609 442.471C74.7515 442.333 74.8813 442.186 75.0019 442.032C75.1208 442.184 75.2524 442.331 75.3931 442.471C76.2559 443.317 77.4038 443.783 78.6248 443.783C79.8459 443.783 80.992 443.317 81.8566 442.471C83.3646 440.992 85.5379 434.521 85.9584 433.239C86.0845 432.841 85.9163 432.406 85.5507 432.194ZM74.9654 452.415C74.4609 452.415 74.0514 452.816 74.0514 453.311V455.104C74.0514 455.598 74.4609 456 74.9654 456C75.4699 456 75.8793 455.598 75.8793 455.104V453.311C75.8793 452.816 75.4699 452.415 74.9654 452.415Z" fill="#508485"/>
<circle opacity="0.1" cx="653.5" cy="435.5" r="52.5" fill="url(#paint3_linear)"/>
<circle cx="653.5" cy="434.5" r="35.5" fill="white"/>
<path d="M672.998 429.112C672.995 429.05 672.973 428.991 672.958 428.93C672.946 428.872 672.942 428.813 672.919 428.761C672.917 428.758 672.917 428.752 672.915 428.747L667.57 417.28V415.688C667.57 414.206 666.352 413 664.855 413H643.141C641.645 413 640.427 414.206 640.427 415.688V417.282L635.081 428.749C635.08 428.752 635.08 428.758 635.078 428.765C635.054 428.817 635.051 428.874 635.038 428.933C635.024 428.994 635.002 429.053 635.002 429.114C635.002 429.12 635 429.121 635 429.125C635 430.582 635.718 431.866 636.81 432.685V455.104C636.81 455.599 637.215 456 637.714 456H670.286C670.785 456 671.19 455.599 671.19 455.104V432.685C672.282 431.866 673 430.582 673 429.125C673 429.12 672.998 429.116 672.998 429.112ZM647.665 443.458H638.617V433.513C638.91 433.572 639.213 433.604 639.522 433.604C641.008 433.604 642.316 432.882 643.141 431.786C643.966 432.884 645.274 433.604 646.76 433.604C647.07 433.604 647.372 433.572 647.665 433.513V443.458ZM658.522 432.708V454.208H649.474V432.708C649.474 432.701 649.471 432.696 649.471 432.689C649.816 432.431 650.122 432.128 650.379 431.784C651.204 432.882 652.513 433.602 653.998 433.602C655.484 433.602 656.792 432.88 657.617 431.784C657.876 432.128 658.182 432.431 658.526 432.689C658.526 432.694 658.522 432.699 658.522 432.708ZM642.236 416.583V415.688C642.236 415.193 642.642 414.792 643.141 414.792H664.855C665.355 414.792 665.76 415.193 665.76 415.688V416.583H642.236ZM669.379 443.458H660.332V433.513C660.625 433.572 660.927 433.604 661.236 433.604C662.722 433.604 664.03 432.882 664.855 431.786C665.68 432.884 666.989 433.604 668.474 433.604C668.784 433.604 669.086 433.572 669.379 433.513V443.458Z" fill="#508485"/>
<text opacity="0.88" fill="#F2C94C" xml:space="preserve" style="white-space: pre" font-family="TT Commons" font-size="12" font-weight="bold" letter-spacing="0em"><tspan x="337.068" y="366.4">GOOD FOR </tspan><tspan x="336.828" y="378.4">EVERYONE&#10;</tspan><tspan x="318.371" y="390.4">GOOD FOR EARTH</tspan></text>
<g filter="url(#filter0_d)">
<circle cx="365" cy="112" r="24" fill="#EEBB50"/>
</g>
<path d="M365 111C362.239 111 360 108.761 360 106C360 103.239 362.239 101 365 101C367.761 101 370 103.239 370 106C370 108.761 367.761 111 365 111Z" fill="white"/>
<path d="M354.001 121.999C354.475 116.033 359.209 113 364.98 113C370.831 113 375.639 115.866 375.997 122C376.012 122.244 375.997 123 375.079 123C370.55 123 363.82 123 354.889 123C354.583 123 353.975 122.324 354.001 121.999Z" fill="white"/>
<path d="M364 160H366V272H364V160Z" fill="url(#paint4_linear)"/>
<path d="M323 314H99C85.7452 314 75 324.745 75 338V392" stroke="white"/>
<rect x="119.5" y="292.5" width="165" height="42" rx="21" fill="#508485" stroke="white"/>
<text fill="white" xml:space="preserve" style="white-space: pre" font-family="TT Commons" font-size="15" font-weight="bold" letter-spacing="0em"><tspan x="147.603" y="310">Buy more land for </tspan><tspan x="177.024" y="325">growing</tspan></text>
<path d="M323 112H99C85.7452 112 75 122.745 75 136V345" stroke="url(#paint5_linear)"/>
<rect x="164.5" y="88.5" width="83" height="45.9999" rx="22.9999" fill="#508485" stroke="white"/>
<text fill="white" xml:space="preserve" style="white-space: pre" font-family="TT Commons" font-size="15" font-weight="bold" letter-spacing="0em"><tspan x="190.963" y="115.5">regis</tspan></text>
<path d="M405 114H629C642.255 114 653 124.745 653 138V345" stroke="url(#paint6_linear)"/>
<rect x="-0.5" y="0.5" width="84" height="46" rx="23" transform="matrix(-1 0 0 1 564 90)" fill="#508485" stroke="white"/>
<text fill="white" xml:space="preserve" style="white-space: pre" font-family="TT Commons" font-size="15" font-weight="bold" letter-spacing="0em"><tspan x="506.963" y="117.5">regis</tspan></text>
<rect x="-1" y="1" width="83" height="45" rx="22.5" transform="matrix(-1 0 0 1 406 190)" fill="#508485" stroke="#EEBB50" stroke-width="2"/>
<text fill="#EEBB50" xml:space="preserve" style="white-space: pre" font-family="TT Commons" font-size="17" font-weight="bold" letter-spacing="0em"><tspan x="347.958" y="217.9">regis</tspan></text>
<path d="M405 314H629C642.255 314 653 324.745 653 338V392" stroke="white"/>
<rect x="442.5" y="292.5" width="165" height="42" rx="21" fill="#508485" stroke="white"/>
<text fill="white" xml:space="preserve" style="white-space: pre" font-family="TT Commons" font-size="15" font-weight="bold" letter-spacing="0em"><tspan x="461.865" y="310">Investment into new </tspan><tspan x="496.875" y="325">buildings</tspan></text>
<path d="M693.753 436H704C712.837 436 720 428.837 720 420V85C720 49.6538 691.346 21 656 21H397C379.327 21 365 35.3269 365 53V66.0215" stroke="#EEBB50"/>
<rect x="483" y="1" width="164" height="41" rx="20.5" fill="#508485" stroke="#EEBB50" stroke-width="2"/>
<text fill="#EEBB50" xml:space="preserve" style="white-space: pre" font-family="TT Commons" font-size="15" font-weight="bold" letter-spacing="0em"><tspan x="499.653" y="25.5">Eco trips and lodging</tspan></text>
<path d="M36.2469 436H26C17.1634 436 10 428.837 10 420V85C10 49.6538 38.6538 21 74 21H333C350.673 21 365 35.3269 365 53V66.0215" stroke="#EEBB50"/>
<rect x="-1" y="1" width="164" height="41" rx="20.5" transform="matrix(-1 0 0 1 246 0)" fill="#508485" stroke="#EEBB50" stroke-width="2"/>
<text fill="#EEBB50" xml:space="preserve" style="white-space: pre" font-family="TT Commons" font-size="15" font-weight="bold" letter-spacing="0em"><tspan x="109.578" y="18">Organic products &#10;</tspan><tspan x="112.288" y="33">(i.e. strawberries)</tspan></text>
<path d="M365 261L374.5 249H355.5L365 261Z" fill="white"/>
<path d="M365 70L374.5 58H355.5L365 70Z" fill="#EEBB50"/>
<path d="M75 371L84.5 359H65.5L75 371Z" fill="white"/>
<path d="M653 371L662.5 359H643.5L653 371Z" fill="white"/>
<path d="M300 314L312 323.5V304.5L300 314Z" fill="white"/>
<path d="M428 314L416 323.5V304.5L428 314Z" fill="white"/>
<path d="M720 213L710.5 225H729.5L720 213Z" fill="#EEBB50"/>
<path d="M365 166L355.5 178H374.5L365 166Z" fill="#EEBB50"/>
<path d="M10 213L0.5 225H19.5L10 213Z" fill="#EEBB50"/>
<defs>
<filter id="filter0_d" x="321" y="68" width="88" height="88" filterUnits="userSpaceOnUse" color-interpolation-filters="sRGB">
<feFlood flood-opacity="0" result="BackgroundImageFix"/>
<feColorMatrix in="SourceAlpha" type="matrix" values="0 0 0 0 0 0 0 0 0 0 0 0 0 0 0 0 0 0 127 0"/>
<feOffset/>
<feGaussianBlur stdDeviation="10"/>
<feColorMatrix type="matrix" values="0 0 0 0 0.269861 0 0 0 0 0.479306 0 0 0 0 0.483333 0 0 0 1 0"/>
<feBlend mode="normal" in2="BackgroundImageFix" result="effect1_dropShadow"/>
<feBlend mode="normal" in="SourceGraphic" in2="effect1_dropShadow" result="shape"/>
</filter>
<linearGradient id="paint0_linear" x1="286.539" y1="372.494" x2="434.201" y2="259.629" gradientUnits="userSpaceOnUse">
<stop stop-color="#508485"/>
<stop offset="1" stop-color="#89BB9C"/>
</linearGradient>
<linearGradient id="paint1_linear" x1="323.802" y1="377.422" x2="419.852" y2="246.434" gradientUnits="userSpaceOnUse">
<stop stop-color="#204768"/>
<stop offset="1" stop-color="#508485"/>
</linearGradient>
<linearGradient id="paint2_linear" x1="115.432" y1="388.339" x2="18.4407" y2="500.458" gradientUnits="userSpaceOnUse">
<stop stop-color="white"/>
<stop offset="1" stop-color="white" stop-opacity="0"/>
</linearGradient>
<linearGradient id="paint3_linear" x1="694.432" y1="388.339" x2="597.441" y2="500.458" gradientUnits="userSpaceOnUse">
<stop stop-color="white"/>
<stop offset="1" stop-color="white" stop-opacity="0"/>
</linearGradient>
<linearGradient id="paint4_linear" x1="365" y1="160" x2="365" y2="226.244" gradientUnits="userSpaceOnUse">
<stop stop-color="#EEBB50"/>
<stop offset="1" stop-color="white"/>
</linearGradient>
<linearGradient id="paint5_linear" x1="199" y1="112" x2="316.778" y2="112.403" gradientUnits="userSpaceOnUse">
<stop offset="0.554007" stop-color="white"/>
<stop offset="1" stop-color="#EEBB50"/>
</linearGradient>
<linearGradient id="paint6_linear" x1="529.5" y1="114" x2="411.247" y2="114.409" gradientUnits="userSpaceOnUse">
<stop offset="0.554007" stop-color="white"/>
<stop offset="1" stop-color="#EEBB50"/>
</linearGradient>
</defs>
</svg>
