<svg width="729" height="545" viewBox="0 0 729 545" fill="none" xmlns="http://www.w3.org/2000/svg">
<path opacity="0.7" d="M439.5 314.5C439.5 355.645 406.145 389 365 389C323.855 389 290.5 355.645 290.5 314.5C290.5 273.355 323.855 240 365 240C406.145 240 439.5 273.355 439.5 314.5Z" fill="url(#paint0_linear)"/>
<path opacity="0.1" d="M452.5 313.5C452.5 361.825 413.549 401 365.5 401C317.451 401 278.5 361.825 278.5 313.5C278.5 265.175 317.451 226 365.5 226C413.549 226 452.5 265.175 452.5 313.5Z" fill="url(#paint1_linear)"/>
<text opacity="0.88" fill="#EEBB50" xml:space="preserve" style="white-space: pre" font-family="TT Commons" font-size="14" font-weight="bold" letter-spacing="0em"><tspan x="314.774" y="154.8">You buying regis</tspan></text>
<text opacity="0.88" fill="#F2C94C" xml:space="preserve" style="white-space: pre" font-family="TT Commons" font-size="12" font-weight="bold" letter-spacing="0em"><tspan x="322.111" y="81.4">GOOD FOR YOU</tspan></text>
<text opacity="0.04" fill="#F2C94C" xml:space="preserve" style="white-space: pre" font-family="TT Commons" font-size="12" font-weight="bold" letter-spacing="0em"><tspan x="625.068" y="529.4">GOOD FOR </tspan><tspan x="631.906" y="541.4">CENTRE</tspan></text>
<text opacity="0.04" fill="#F2C94C" xml:space="preserve" style="white-space: pre" font-family="TT Commons" font-size="12" font-weight="bold" letter-spacing="0em"><tspan x="30.1074" y="526.4">GOOD FOR FARM</tspan></text>
<text opacity="0.04" fill="white" xml:space="preserve" style="white-space: pre" font-family="TT Commons" font-size="20" font-weight="bold" letter-spacing="0em"><tspan x="38.8457" y="491">Organic &#10;</tspan><tspan x="55.3496" y="509">farm</tspan></text>
<text opacity="0.04" fill="white" xml:space="preserve" style="white-space: pre" font-family="TT Commons" font-size="20" font-weight="bold" letter-spacing="0em"><tspan x="605.346" y="494">Ecotourism </tspan><tspan x="625.756" y="512">centre</tspan></text>
<circle cx="364" cy="314.5" r="35.5" fill="#17334B"/>
<text fill="white" xml:space="preserve" style="white-space: pre" font-family="Abril Fatface" font-size="24" letter-spacing="0.05em"><tspan x="337.462" y="323.204">Regi</tspan></text>
<g opacity="0.04">
<circle opacity="0.1" cx="74" cy="435.5" r="52.5" fill="url(#paint2_linear)"/>
<circle cx="74" cy="434.5" r="35.5" fill="white"/>
<path d="M67.6437 433.176C69.3692 434.869 72.3816 434.869 74.1071 433.176C74.2479 433.037 74.3795 432.891 74.4983 432.737C74.6189 432.891 74.7487 433.037 74.8913 433.176C75.7541 434.022 76.902 434.489 78.123 434.489C79.344 434.489 80.492 434.022 81.3547 433.176C82.8627 431.699 85.0361 425.226 85.4565 423.944C85.5863 423.546 85.4181 423.113 85.0507 422.899C84.6852 422.688 84.2154 422.751 83.9211 423.055C83.9101 423.066 82.8317 424.161 81.532 424.62C80.662 424.929 79.6658 425.169 78.7043 425.4C76.966 425.819 75.5932 426.149 74.8913 426.839C74.7505 426.979 74.6189 427.124 74.5001 427.279C74.3795 427.124 74.2497 426.979 74.1071 426.839C73.4034 426.149 72.0306 425.819 70.2941 425.4C69.3327 425.169 68.3365 424.929 67.4664 424.62C66.1594 424.158 65.0883 423.064 65.0773 423.053C64.7812 422.751 64.3133 422.688 63.9477 422.901C63.5803 423.114 63.4139 423.548 63.5437 423.946C63.9623 425.226 66.1357 431.697 67.6437 433.176ZM74.4654 425.525C76.9842 425.525 79.0351 423.514 79.0351 421.044C79.0351 418.893 75.8546 414.27 75.2185 413.364C74.8748 412.879 74.0559 412.879 73.7141 413.364C73.0762 414.27 69.8957 418.893 69.8957 421.044C69.8957 423.514 71.9466 425.525 74.4654 425.525ZM85.0507 441.489C84.687 441.277 84.2172 441.34 83.9211 441.641C83.9101 441.652 82.839 442.745 81.532 443.208C80.662 443.516 79.6676 443.756 78.7061 443.988C76.9678 444.405 75.595 444.737 74.8913 445.427C74.7487 445.565 74.6189 445.712 74.5001 445.866C74.3795 445.714 74.2497 445.567 74.1071 445.427C73.4034 444.737 72.0306 444.405 70.2941 443.988C69.3308 443.756 68.3365 443.516 67.4664 443.208C66.1594 442.745 65.0883 441.652 65.0773 441.641C64.7812 441.338 64.3133 441.274 63.9477 441.489C63.5803 441.702 63.4139 442.136 63.5437 442.534C63.9641 443.817 66.1375 450.289 67.6455 451.766C69.371 453.458 72.3834 453.458 74.109 451.766C74.2515 451.628 74.3813 451.481 74.5001 451.327C74.6208 451.479 74.7505 451.626 74.8931 451.766C75.7559 452.612 76.9038 453.078 78.1248 453.078C79.3459 453.078 80.4938 452.612 81.3566 451.766C82.8646 450.289 85.0379 443.816 85.4584 442.534C85.5845 442.136 85.4163 441.702 85.0507 441.489ZM85.0507 432.194C84.6833 431.981 84.2136 432.045 83.9211 432.348C83.9101 432.359 82.8317 433.454 81.5339 433.915C80.6638 434.221 79.6694 434.462 78.7079 434.695C76.9696 435.112 75.5969 435.444 74.8931 436.134C74.7505 436.272 74.6208 436.419 74.5019 436.573C74.3813 436.421 74.2515 436.274 74.109 436.134C73.4052 435.444 72.0325 435.112 70.2941 434.695C69.3327 434.463 68.3365 434.223 67.4682 433.915C66.1613 433.452 65.0883 432.359 65.0773 432.348C64.783 432.045 64.3151 431.981 63.9477 432.196C63.5821 432.409 63.4139 432.841 63.5437 433.239C63.9641 434.521 66.1375 440.992 67.6455 442.471C69.371 444.163 72.3816 444.163 74.109 442.471C74.2515 442.333 74.3813 442.186 74.5019 442.032C74.6208 442.184 74.7524 442.331 74.8931 442.471C75.7559 443.317 76.9038 443.783 78.1248 443.783C79.3459 443.783 80.492 443.317 81.3566 442.471C82.8646 440.992 85.0379 434.521 85.4584 433.239C85.5845 432.841 85.4163 432.406 85.0507 432.194ZM74.4654 452.415C73.9609 452.415 73.5514 452.816 73.5514 453.311V455.104C73.5514 455.598 73.9609 456 74.4654 456C74.9699 456 75.3793 455.598 75.3793 455.104V453.311C75.3793 452.816 74.9699 452.415 74.4654 452.415Z" fill="#508485"/>
</g>
<g opacity="0.04">
<circle opacity="0.1" cx="653" cy="435.5" r="52.5" fill="url(#paint3_linear)"/>
<circle cx="653" cy="434.5" r="35.5" fill="white"/>
<path d="M672.498 429.112C672.495 429.05 672.473 428.991 672.458 428.93C672.446 428.872 672.442 428.813 672.419 428.761C672.417 428.758 672.417 428.752 672.415 428.747L667.07 417.28V415.688C667.07 414.206 665.852 413 664.355 413H642.641C641.145 413 639.927 414.206 639.927 415.688V417.282L634.581 428.749C634.58 428.752 634.58 428.758 634.578 428.765C634.554 428.817 634.551 428.874 634.538 428.933C634.524 428.994 634.502 429.053 634.502 429.114C634.502 429.12 634.5 429.121 634.5 429.125C634.5 430.582 635.218 431.866 636.31 432.685V455.104C636.31 455.599 636.715 456 637.214 456H669.786C670.285 456 670.69 455.599 670.69 455.104V432.685C671.782 431.866 672.5 430.582 672.5 429.125C672.5 429.12 672.498 429.116 672.498 429.112ZM647.165 443.458H638.117V433.513C638.41 433.572 638.713 433.604 639.022 433.604C640.508 433.604 641.816 432.882 642.641 431.786C643.466 432.884 644.774 433.604 646.26 433.604C646.57 433.604 646.872 433.572 647.165 433.513V443.458ZM658.022 432.708V454.208H648.974V432.708C648.974 432.701 648.971 432.696 648.971 432.689C649.316 432.431 649.622 432.128 649.879 431.784C650.704 432.882 652.013 433.602 653.498 433.602C654.984 433.602 656.292 432.88 657.117 431.784C657.376 432.128 657.682 432.431 658.026 432.689C658.026 432.694 658.022 432.699 658.022 432.708ZM641.736 416.583V415.688C641.736 415.193 642.142 414.792 642.641 414.792H664.355C664.855 414.792 665.26 415.193 665.26 415.688V416.583H641.736ZM668.879 443.458H659.832V433.513C660.125 433.572 660.427 433.604 660.736 433.604C662.222 433.604 663.53 432.882 664.355 431.786C665.18 432.884 666.489 433.604 667.974 433.604C668.284 433.604 668.586 433.572 668.879 433.513V443.458Z" fill="#508485"/>
</g>
<text opacity="0.88" fill="#F2C94C" xml:space="preserve" style="white-space: pre" font-family="TT Commons" font-size="12" font-weight="bold" letter-spacing="0em"><tspan x="336.568" y="366.4">GOOD FOR </tspan><tspan x="336.328" y="378.4">EVERYONE&#10;</tspan><tspan x="317.871" y="390.4">GOOD FOR EARTH</tspan></text>
<g filter="url(#filter0_d)">
<circle cx="364.5" cy="112" r="24" fill="#EEBB50"/>
</g>
<path opacity="0.3" d="M365.5 112C362.739 112 360.5 109.761 360.5 107C360.5 104.239 362.739 102 365.5 102C368.261 102 370.5 104.239 370.5 107C370.5 109.761 368.261 112 365.5 112Z" fill="#17334B"/>
<path d="M354.501 122.999C354.975 117.033 359.709 114 365.48 114C371.331 114 376.139 116.866 376.497 123C376.512 123.244 376.497 124 375.579 124C371.05 124 364.32 124 355.389 124C355.083 124 354.475 123.324 354.501 122.999Z" fill="#17334B"/>
<path d="M363.5 160H365.5V272H363.5V160Z" fill="url(#paint4_linear)"/>
<g opacity="0.04">
<path d="M322.5 314H98.5C85.2452 314 74.5 324.745 74.5 338V392" stroke="white"/>
<rect x="119" y="292.5" width="165" height="42" rx="21" fill="#508485" stroke="white"/>
<text fill="white" xml:space="preserve" style="white-space: pre" font-family="TT Commons" font-size="15" font-weight="bold" letter-spacing="0em"><tspan x="147.103" y="310">Buy more land for </tspan><tspan x="176.524" y="325">growing</tspan></text>
</g>
<g opacity="0.04">
<path d="M322.5 112H98.5C85.2452 112 74.5 122.745 74.5 136V345" stroke="url(#paint5_linear)"/>
<rect x="164" y="88.5" width="83" height="45.9999" rx="22.9999" fill="#508485" stroke="white"/>
<text fill="white" xml:space="preserve" style="white-space: pre" font-family="TT Commons" font-size="15" font-weight="bold" letter-spacing="0em"><tspan x="190.463" y="115.5">regis</tspan></text>
</g>
<g opacity="0.04">
<path d="M404.5 114H628.5C641.755 114 652.5 124.745 652.5 138V345" stroke="url(#paint6_linear)"/>
<rect x="-0.5" y="0.5" width="84" height="46" rx="23" transform="matrix(-1 0 0 1 563.5 90)" fill="#508485" stroke="white"/>
<text fill="white" xml:space="preserve" style="white-space: pre" font-family="TT Commons" font-size="15" font-weight="bold" letter-spacing="0em"><tspan x="506.463" y="117.5">regis</tspan></text>
</g>
<rect x="-1" y="1" width="83" height="45" rx="22.5" transform="matrix(-1 0 0 1 405.5 190)" fill="#508485" stroke="#EEBB50" stroke-width="2"/>
<text fill="#EEBB50" xml:space="preserve" style="white-space: pre" font-family="TT Commons" font-size="17" font-weight="bold" letter-spacing="0em"><tspan x="347.458" y="217.9">regis</tspan></text>
<g opacity="0.04">
<path d="M404.5 314H628.5C641.755 314 652.5 324.745 652.5 338V392" stroke="white"/>
<rect x="442" y="292.5" width="165" height="42" rx="21" fill="#508485" stroke="white"/>
<text fill="white" xml:space="preserve" style="white-space: pre" font-family="TT Commons" font-size="15" font-weight="bold" letter-spacing="0em"><tspan x="461.365" y="310">Investment into new </tspan><tspan x="496.375" y="325">buildings</tspan></text>
</g>
<g opacity="0.04">
<path d="M693.253 436H703.5C712.337 436 719.5 428.837 719.5 420V85C719.5 49.6538 690.846 21 655.5 21H396.5C378.827 21 364.5 35.3269 364.5 53V66.0215" stroke="#EEBB50"/>
<rect x="482.5" y="1" width="164" height="41" rx="20.5" fill="#508485" stroke="#EEBB50" stroke-width="2"/>
<text fill="#EEBB50" xml:space="preserve" style="white-space: pre" font-family="TT Commons" font-size="15" font-weight="bold" letter-spacing="0em"><tspan x="499.153" y="25.5">Eco trips and lodging</tspan></text>
</g>
<g opacity="0.04">
<path d="M35.7469 436H25.5C16.6634 436 9.5 428.837 9.5 420V85C9.5 49.6538 38.1538 21 73.5 21H332.5C350.173 21 364.5 35.3269 364.5 53V66.0215" stroke="#EEBB50"/>
<rect x="-1" y="1" width="164" height="41" rx="20.5" transform="matrix(-1 0 0 1 245.5 0)" fill="#508485" stroke="#EEBB50" stroke-width="2"/>
<text fill="#EEBB50" xml:space="preserve" style="white-space: pre" font-family="TT Commons" font-size="15" font-weight="bold" letter-spacing="0em"><tspan x="109.078" y="18">Organic products &#10;</tspan><tspan x="111.788" y="33">(i.e. strawberries)</tspan></text>
</g>
<path d="M364.5 261L374 249H355L364.5 261Z" fill="white"/>
<path opacity="0.04" d="M74.5 371L84 359H65L74.5 371Z" fill="white"/>
<path opacity="0.04" d="M652.5 371L662 359H643L652.5 371Z" fill="white"/>
<path opacity="0.04" d="M299.5 314L311.5 323.5V304.5L299.5 314Z" fill="white"/>
<path opacity="0.04" d="M427.5 314L415.5 323.5V304.5L427.5 314Z" fill="white"/>
<path opacity="0.04" d="M719.5 213L710 225H729L719.5 213Z" fill="#EEBB50"/>
<path d="M364.5 166L355 178H374L364.5 166Z" fill="#EEBB50"/>
<path opacity="0.04" d="M9.5 213L0 225H19L9.5 213Z" fill="#EEBB50"/>
<path opacity="0.04" d="M364.5 70L374 58H355L364.5 70Z" fill="#EEBB50"/>
<!-- <text fill="#D6EEA7" xml:space="preserve" style="white-space: pre" font-family="TT Commons" font-size="24" letter-spacing="0.01em"><tspan x="252.194" y="444.621">Click here to continue</tspan></text> -->
<defs>
<filter id="filter0_d" x="320.5" y="68" width="88" height="88" filterUnits="userSpaceOnUse" color-interpolation-filters="sRGB">
<feFlood flood-opacity="0" result="BackgroundImageFix"/>
<feColorMatrix in="SourceAlpha" type="matrix" values="0 0 0 0 0 0 0 0 0 0 0 0 0 0 0 0 0 0 127 0"/>
<feOffset/>
<feGaussianBlur stdDeviation="10"/>
<feColorMatrix type="matrix" values="0 0 0 0 0.269861 0 0 0 0 0.479306 0 0 0 0 0.483333 0 0 0 1 0"/>
<feBlend mode="normal" in2="BackgroundImageFix" result="effect1_dropShadow"/>
<feBlend mode="normal" in="SourceGraphic" in2="effect1_dropShadow" result="shape"/>
</filter>
<linearGradient id="paint0_linear" x1="286.039" y1="372.494" x2="433.701" y2="259.629" gradientUnits="userSpaceOnUse">
<stop stop-color="#508485"/>
<stop offset="1" stop-color="#89BB9C"/>
</linearGradient>
<linearGradient id="paint1_linear" x1="323.302" y1="377.422" x2="419.352" y2="246.434" gradientUnits="userSpaceOnUse">
<stop stop-color="#204768"/>
<stop offset="1" stop-color="#508485"/>
</linearGradient>
<linearGradient id="paint2_linear" x1="114.932" y1="388.339" x2="17.9407" y2="500.458" gradientUnits="userSpaceOnUse">
<stop stop-color="white"/>
<stop offset="1" stop-color="white" stop-opacity="0"/>
</linearGradient>
<linearGradient id="paint3_linear" x1="693.932" y1="388.339" x2="596.941" y2="500.458" gradientUnits="userSpaceOnUse">
<stop stop-color="white"/>
<stop offset="1" stop-color="white" stop-opacity="0"/>
</linearGradient>
<linearGradient id="paint4_linear" x1="364.5" y1="160" x2="364.5" y2="226.244" gradientUnits="userSpaceOnUse">
<stop stop-color="#EEBB50"/>
<stop offset="1" stop-color="white"/>
</linearGradient>
<linearGradient id="paint5_linear" x1="198.5" y1="112" x2="316.278" y2="112.403" gradientUnits="userSpaceOnUse">
<stop offset="0.554007" stop-color="white"/>
<stop offset="1" stop-color="#EEBB50"/>
</linearGradient>
<linearGradient id="paint6_linear" x1="529" y1="114" x2="410.747" y2="114.409" gradientUnits="userSpaceOnUse">
<stop offset="0.554007" stop-color="white"/>
<stop offset="1" stop-color="#EEBB50"/>
</linearGradient>
</defs>
</svg>
